<svg width="60" height="60" viewBox="0 0 60 60" fill="none" xmlns="http://www.w3.org/2000/svg">
<circle cx="30" cy="30" r="30" fill="white"/>
<path fill-rule="evenodd" clip-rule="evenodd" d="M21.5146 21.5147C21.1241 21.9052 21.1241 22.5384 21.5146 22.9289L28.5856 30L21.5146 37.0711C21.1241 37.4616 21.1241 38.0948 21.5146 38.4853C21.9051 38.8758 22.5383 38.8758 22.9288 38.4853L29.9999 31.4142L37.0709 38.4853C37.4615 38.8758 38.0946 38.8758 38.4851 38.4853C38.8757 38.0948 38.8757 37.4616 38.4851 37.0711L31.4141 30L38.4851 22.9289C38.8757 22.5384 38.8757 21.9052 38.4851 21.5147C38.0946 21.1242 37.4615 21.1242 37.0709 21.5147L29.9999 28.5858L22.9288 21.5147C22.5383 21.1242 21.9051 21.1242 21.5146 21.5147Z" fill="#6750F7"/>
</svg>
