<svg width="250" height="57" viewBox="0 0 250 57" fill="none" xmlns="http://www.w3.org/2000/svg">
<path d="M195.655 48.422C195.203 48.422 194.694 48.422 194.203 48.422C194.203 48.422 194.185 48.3641 194.166 48.3061C193.562 46.4334 191.564 45.4873 189.716 45.6804C187.509 45.9121 185.982 47.6497 185.925 50.0052C185.888 51.0864 186.114 52.1096 186.755 52.9977C187.717 54.3299 189.056 54.8126 190.621 54.6968C191.903 54.6002 192.997 54.0596 193.732 52.9591C193.883 52.7081 194.203 52.1482 194.317 51.5883C192.808 51.5883 191.337 51.5883 189.848 51.5883C189.848 51.125 189.848 50.7002 189.848 50.2368C191.846 50.2368 193.845 50.2368 195.882 50.2368C195.863 50.4299 195.863 50.623 195.844 50.8161C195.674 52.4765 195.033 53.9052 193.713 54.9478C192.488 55.9324 191.054 56.2413 189.527 56.0676C187.623 55.8359 186.152 54.8898 185.209 53.1522C183.946 50.7774 184.398 47.5725 186.284 45.7769C187.547 44.5799 189.056 44.1358 190.753 44.271C192.242 44.4061 193.543 44.9853 194.562 46.1244C195.109 46.723 195.467 47.4373 195.674 48.2289C195.637 48.2868 195.655 48.3448 195.655 48.422Z" fill="#6750F7"/>
<path d="M177.723 55.9132C177.346 55.9132 176.535 55.9132 176.535 55.9132C176.535 55.9132 174.083 52.4958 172.914 50.8547C172.028 49.6191 171.161 48.4027 170.274 47.1671C170.237 47.1285 170.199 47.0705 170.124 46.974C170.124 49.9859 170.124 52.9206 170.124 55.8938C169.652 55.8938 169.2 55.8938 168.747 55.8938C168.747 52.0711 168.747 48.2676 168.747 44.4062C169.03 44.4062 170.029 44.4062 170.029 44.4062C170.029 44.4062 174.215 50.2948 176.195 53.075C176.233 53.1136 176.271 53.1715 176.327 53.2488C176.327 50.2755 176.327 47.3601 176.327 44.4255C176.799 44.4255 177.233 44.4255 177.704 44.4255C177.723 48.229 177.723 52.0517 177.723 55.9132Z" fill="#6750F7"/>
<path d="M160.111 44.407C160.582 44.407 161.035 44.407 161.506 44.407C161.506 48.2297 161.506 52.0718 161.506 55.8946C161.431 55.8946 160.526 55.8946 160.111 55.8946C160.111 52.0718 160.111 48.2491 160.111 44.407Z" fill="#6750F7"/>
<path d="M77.2175 56.1442C75.2187 56.0863 73.5216 55.3526 72.3336 53.5956C71.5417 52.4179 71.24 51.0857 71.3531 49.6763C71.4662 48.1124 72.0696 46.7803 73.201 45.7184C74.0496 44.9268 75.0678 44.4634 76.1992 44.2897C77.7077 44.058 79.1408 44.2704 80.4419 45.0812C81.9128 45.9887 82.7802 47.3595 83.063 49.0778C83.3459 50.7961 83.0441 52.4179 81.9882 53.8273C80.8002 55.4298 79.1597 56.1056 77.2175 56.1442ZM77.2363 45.6218C74.6718 45.6218 72.7673 47.5719 72.7673 50.1783C72.7673 52.7654 74.6907 54.7155 77.2363 54.7155C79.8008 54.7155 81.7242 52.7848 81.7242 50.1783C81.7053 47.5719 79.8008 45.6218 77.2363 45.6218Z" fill="#6750F7"/>
<path d="M65.3191 48.2869C64.8665 48.2869 63.886 48.2869 63.886 48.2869C63.886 48.2869 63.8483 48.171 63.8106 48.0938C63.4334 47.2057 62.8489 46.5299 62.0003 46.0859C59.6056 44.8695 56.0982 45.9507 55.6834 49.5418C55.5703 50.4686 55.6834 51.376 56.0605 52.2255C56.6262 53.4805 57.5879 54.2721 58.9079 54.5617C60.2655 54.8513 61.5289 54.6582 62.6603 53.7701C63.226 53.326 63.622 52.7275 63.8671 52.0517C63.9237 51.9166 63.9426 51.8587 63.9426 51.8587C63.9426 51.8587 64.942 51.8587 65.3757 51.8587C65.1871 52.6116 64.8854 53.2874 64.4517 53.8859C63.358 55.3726 61.8684 56.0676 60.077 56.0869C58.2668 56.1062 56.7017 55.4884 55.5137 54.0597C54.6652 53.0557 54.2692 51.8394 54.1937 50.5265C54.1183 49.0398 54.4389 47.669 55.3251 46.4527C56.3057 45.1012 57.6633 44.3869 59.285 44.2131C60.9067 44.0393 62.4152 44.4062 63.6786 45.5067C64.4706 46.1824 64.9797 47.0512 65.2814 48.0552C65.3002 48.171 65.3191 48.229 65.3191 48.2869Z" fill="#6750F7"/>
<path d="M105.785 52.3993C106.257 52.3993 106.804 52.3993 107.237 52.3993C107.237 52.3993 107.237 52.4766 107.237 52.5152C107.256 53.7508 108.293 54.5617 109.575 54.6583C110.405 54.7162 111.197 54.6003 111.857 54.0597C112.404 53.5964 112.611 52.8241 112.404 52.1677C112.291 51.8201 112.065 51.5884 111.763 51.3954C111.254 51.0672 110.669 50.932 110.103 50.7775C109.443 50.6038 108.783 50.4493 108.142 50.2369C107.765 50.1018 107.388 49.9087 107.068 49.6963C106.219 49.0978 105.955 48.229 106.03 47.225C106.162 45.777 106.992 44.831 108.463 44.4641C109.538 44.1938 110.594 44.2132 111.65 44.6186C112.894 45.1013 113.648 46.2597 113.648 47.6112C113.648 47.6305 113.648 47.6691 113.648 47.7077C113.196 47.7077 112.724 47.7077 112.253 47.7077C112.234 47.534 112.215 47.3795 112.178 47.225C112.027 46.6265 111.669 46.2018 111.122 45.9508C110.179 45.5453 109.236 45.5646 108.331 46.028C107.633 46.3755 107.313 47.0706 107.482 47.785C107.577 48.1904 107.841 48.48 108.18 48.6924C108.708 49.0206 109.311 49.1364 109.915 49.3102C110.669 49.5226 111.423 49.7157 112.159 49.986C113.045 50.3142 113.686 50.932 113.912 51.9167C114.29 53.5384 113.573 55.0444 112.083 55.7008C110.537 56.3766 108.953 56.3187 107.464 55.4691C106.408 54.8706 105.898 53.886 105.842 52.6696C105.804 52.5538 105.785 52.4573 105.785 52.3993Z" fill="#6750F7"/>
<path d="M149.494 45.7577C148.325 45.7577 147.194 45.7577 146.063 45.7577C146.063 45.2943 146.063 44.8503 146.063 44.3869C146.138 44.3869 154.341 44.3869 154.341 44.3869V45.7577C154.341 45.7577 152.059 45.7577 150.909 45.7577C150.909 49.1557 150.909 52.5345 150.909 55.9325C150.437 55.9325 149.985 55.9518 149.513 55.9518C149.494 52.5731 149.494 49.175 149.494 45.7577Z" fill="#6750F7"/>
<path d="M99.0156 55.9132C98.6384 55.9132 97.8276 55.9132 97.8276 55.9132C97.8276 55.9132 95.3763 52.4958 94.2072 50.8547C93.3209 49.6191 92.4535 48.4027 91.5672 47.1671C91.5295 47.1285 91.4918 47.0705 91.4164 46.974C91.4164 49.9859 91.4164 52.9206 91.4164 55.8938C90.945 55.8938 90.4924 55.8938 90.0399 55.8938C90.0399 52.0711 90.0399 48.2676 90.0399 44.4062C90.3227 44.4062 91.3221 44.4062 91.3221 44.4062C91.3221 44.4062 95.5083 50.2948 97.4882 53.075C97.5259 53.1136 97.5636 53.1715 97.6202 53.2488C97.6202 50.2755 97.6202 47.3601 97.6202 44.4255C98.0916 44.4255 98.5253 44.4255 98.9967 44.4255C99.0156 48.229 99.0156 52.0517 99.0156 55.9132Z" fill="#6750F7"/>
<path d="M127.791 44.3868C127.791 44.5027 127.791 49.2908 127.791 51.5884C127.772 53.3839 126.659 54.6389 124.981 54.7161C123.925 54.774 123.02 54.4265 122.379 53.5384C121.945 52.9398 121.794 52.2448 121.794 51.5111C121.794 50.1789 121.794 48.8468 121.794 47.4953C121.794 46.9547 121.794 45.6225 121.794 44.3675H120.361C120.361 46.8195 120.361 49.9279 120.361 51.6463C120.361 52.2834 120.474 52.9012 120.72 53.4998C121.342 54.9478 122.435 55.778 123.944 56.0483C125.302 56.28 126.565 56.029 127.659 55.1215C128.715 54.2527 129.205 53.075 129.205 51.7042C129.224 49.3294 129.205 44.4448 129.205 44.3675C128.734 44.3868 128.281 44.3868 127.791 44.3868Z" fill="#6750F7"/>
<path d="M142.97 54.581C142.97 54.581 138.124 54.581 138.011 54.581C138.011 54.4652 138.011 47.978 138.011 44.3869H136.597C136.597 48.5958 136.597 55.9518 136.597 55.9518C136.597 55.9518 142.895 55.9518 142.989 55.9518C142.97 55.5657 142.97 54.581 142.97 54.581Z" fill="#6750F7"/>
<path d="M79.6502 0H69.6185V8.5144L79.6502 0Z" fill="#655CE5"/>
<path d="M67.2424 17.4535H69.6183V32.8219H77.2929V17.4535V8.93915L67.2424 17.4535Z" fill="white"/>
<path d="M36.921 9.46049V16.7972H33.8851C31.1132 16.7972 29.9441 18.0328 29.9441 21.0061V32.822H22.1186V9.55703H27.3607L28.5864 12.1442C30.1892 10.2521 32.1314 9.46049 34.8468 9.46049H36.921Z" fill="white"/>
<path d="M63.4334 9.53764V32.8026H57.3804L56.7016 31.1615C54.8348 32.7061 52.4777 33.5942 49.8567 33.5942C42.9175 33.5942 37.9393 28.4006 37.9393 21.1798C37.9393 13.9783 42.8986 8.84259 49.8567 8.84259C52.5343 8.84259 54.9291 9.75002 56.7959 11.3332L57.5879 9.53764H63.4334ZM55.985 21.1798C55.985 18.1679 53.8354 15.8897 50.8938 15.8897C47.9522 15.8897 45.8025 18.1486 45.8025 21.1798C45.8025 24.211 47.9522 26.4892 50.8938 26.4892C53.8354 26.4892 55.985 24.2303 55.985 21.1798Z" fill="white"/>
<path d="M83.4779 0H91.3034V32.822H83.4779V0Z" fill="white"/>
<path d="M122.794 21.2184C122.794 28.4393 117.853 33.5942 110.858 33.5942C108.199 33.5942 105.842 32.6868 104.013 31.1036L103.277 32.8413H97.4882V0H105.219V10.4451C106.841 9.42183 108.764 8.84262 110.858 8.84262C117.853 8.84262 122.794 13.9783 122.794 21.2184ZM114.912 21.2184C114.912 18.1872 112.762 15.909 109.82 15.909C106.954 15.909 104.842 18.0714 104.748 20.9867C104.654 23.9793 107.143 26.6051 110.066 26.4893C112.837 26.3734 114.912 24.1531 114.912 21.2184Z" fill="white"/>
<path d="M126.037 0H133.862V32.822H126.037V0Z" fill="white"/>
<path d="M162.166 9.53764V32.8026H156.132L155.453 31.1615C153.586 32.7061 151.229 33.5942 148.589 33.5942C141.65 33.5942 136.672 28.4006 136.672 21.1798C136.672 13.9783 141.631 8.84259 148.589 8.84259C151.267 8.84259 153.662 9.75002 155.529 11.3332L156.321 9.53764H162.166ZM154.737 21.1798C154.737 18.1679 152.587 15.8897 149.645 15.8897C146.704 15.8897 144.554 18.1486 144.554 21.1798C144.554 24.211 146.704 26.4892 149.645 26.4892C152.587 26.4892 154.737 24.2303 154.737 21.1798Z" fill="white"/>
<path d="M184.85 25.6977V32.822H165.24V31.625L173.932 16.6234H165.994V9.55704H184.756V10.8699L176.176 25.6977H184.85Z" fill="white"/>
<path d="M210.816 20.9674C210.816 21.6624 210.759 22.3768 210.646 23.0912H193.77C194.279 25.7555 195.938 27.1456 198.408 27.1456C200.237 27.1456 201.765 26.3347 202.519 24.9639H210.307C208.704 30.2734 204.103 33.5942 198.408 33.5942C191.318 33.5942 186.076 28.2847 186.076 21.1798C186.076 14.0555 191.281 8.80396 198.408 8.80396C205.762 8.80396 210.835 14.152 210.816 20.9674ZM193.939 18.6505H203.123C202.444 16.3337 200.803 15.0787 198.446 15.0787C196.146 15.0787 194.562 16.353 193.939 18.6505Z" fill="white"/>
<path d="M228.353 9.46049V16.7972H225.317C222.545 16.7972 221.395 18.0328 221.395 21.0061V32.822H213.569V9.55703H218.811L220.037 12.1442C221.64 10.2521 223.582 9.46049 226.297 9.46049H228.353Z" fill="white"/>
<path d="M239.987 33.5942C233.802 33.5942 230.031 30.2541 229.955 25.215H237.479C237.479 26.914 238.629 27.7056 240.119 27.7056C241.269 27.7056 242.344 27.107 242.344 25.91C242.344 24.5778 240.628 24.1917 238.441 23.8249C234.914 23.2456 230.257 22.1451 230.257 16.5075C230.257 11.8352 234.141 8.84259 239.949 8.84259C245.738 8.84259 249.491 11.9896 249.566 16.7006H242.231C242.231 15.2139 241.25 14.5189 239.836 14.5189C238.591 14.5189 237.743 15.156 237.743 16.2372C237.743 17.5694 239.478 17.8783 241.646 18.2644C245.229 18.9209 250 19.6738 250 25.5818C250.037 30.4085 246.04 33.5942 239.987 33.5942Z" fill="white"/>
<path d="M0 0V7.22083H7.12777V32.822H14.9909V7.22083H22.1376V0H0Z" fill="white"/>
</svg>
